<?xml version="1.0" standalone="no"?>
<!DOCTYPE svg PUBLIC "-//W3C//DTD SVG 20010904//EN"
 "http://www.w3.org/TR/2001/REC-SVG-20010904/DTD/svg10.dtd">
<svg version="1.0" xmlns="http://www.w3.org/2000/svg"
 width="731.000000pt" height="731.000000pt" viewBox="0 0 731.000000 731.000000"
 preserveAspectRatio="xMidYMid meet">
<metadata>
Created by potrace 1.11, written by Peter Selinger 2001-2013
</metadata>
<g transform="translate(0.000000,731.000000) scale(0.100000,-0.100000)"
fill="#000000" stroke="none">
<path d="M0 3655 l0 -3655 3655 0 3655 0 0 3655 0 3655 -3655 0 -3655 0 0
-3655z m5577 1369 c301 -62 538 -287 614 -583 30 -116 27 -302 -7 -417 -136
-470 -645 -707 -1096 -510 l-37 16 13 -43 c7 -23 62 -191 121 -373 l108 -330
46 -17 c182 -64 243 -305 111 -434 -65 -64 -84 -68 -300 -68 -180 0 -199 2
-252 23 -67 27 -157 105 -193 166 -13 22 -74 199 -136 391 -62 193 -113 352
-115 354 -1 1 -640 -205 -1418 -458 -778 -254 -1442 -467 -1475 -473 -191 -36
-395 99 -447 294 -47 179 34 371 193 455 32 17 245 92 473 167 449 147 498
169 608 270 60 56 100 111 172 236 56 97 165 204 256 252 88 46 1138 461 1224
483 78 21 242 23 320 6 76 -18 157 -48 209 -78 47 -27 61 -22 61 26 0 12 14
64 30 113 92 274 312 472 595 533 83 19 231 18 322 -1z"/>
<path d="M5284 4885 c-263 -57 -459 -261 -513 -533 -22 -107 -16 -133 43 -216
53 -74 90 -155 137 -305 21 -65 30 -79 72 -113 107 -84 241 -128 397 -128 113
0 188 17 287 65 172 85 298 239 348 430 22 81 22 233 0 315 -49 192 -171 342
-350 431 -129 64 -284 84 -421 54z"/>
<path d="M4040 4276 c-107 -33 -1081 -420 -1154 -459 -85 -45 -154 -119 -228
-243 -102 -173 -219 -285 -383 -367 -38 -19 -259 -96 -489 -172 l-419 -137
-48 -48 c-130 -130 -88 -348 81 -423 95 -42 36 -59 1575 443 781 254 1423 464
1427 466 3 2 -5 42 -20 89 -21 70 -23 90 -14 110 23 49 97 53 122 6 5 -11 80
-237 166 -503 86 -265 162 -494 169 -508 20 -39 87 -96 131 -111 27 -10 90
-14 202 -14 l164 0 29 33 c35 39 39 91 9 139 -27 46 -63 60 -162 65 -54 3 -93
10 -103 18 -43 35 -34 100 16 120 17 7 28 18 26 24 -2 6 -84 256 -181 556 -98
300 -194 579 -214 620 -69 140 -222 263 -382 305 -85 23 -230 18 -320 -9z"/>
</g>
</svg>
